<svg width="64" height="64" viewBox="0 0 64 64" fill="none" xmlns="http://www.w3.org/2000/svg">
<g filter="url(#filter0_ii_3678_399)">
<path fill-rule="evenodd" clip-rule="evenodd" d="M27.1469 5.06343C28.7929 3.83731 30.462 3 32 3C33.538 3 35.2071 3.83731 36.8531 5.06343C38.5323 6.31423 40.3362 8.08319 42.1697 10.1896C45.8399 14.4063 49.7186 20.0804 53.0565 25.9684C56.3928 31.8536 59.2175 38.0028 60.7529 43.1771C61.5194 45.7605 61.9792 48.1486 61.9993 50.1631C62.0192 52.1517 61.6111 53.9585 60.4334 55.1612C59.3818 56.2351 57.7946 57.106 55.9117 57.8197C54.0119 58.5398 51.728 59.1302 49.2056 59.5986C44.1594 60.5356 38.0702 61 32 61C25.9298 61 19.8406 60.5356 14.7944 59.5986C12.272 59.1302 9.9881 58.5398 8.08831 57.8197C6.20539 57.106 4.61817 56.2351 3.56663 55.1612C2.38892 53.9585 1.98082 52.1517 2.00069 50.1631C2.02082 48.1486 2.48055 45.7605 3.24712 43.1771C4.78247 38.0028 7.60715 31.8536 10.9435 25.9684C14.2814 20.0804 18.1601 14.4063 21.8303 10.1896C23.6638 8.08319 25.4677 6.31423 27.1469 5.06343Z" fill="#E8F3FD"/>
</g>
<path d="M33 47C33 47.5523 32.5523 48 32 48C31.4477 48 31 47.5523 31 47C31 46.4477 31.4477 46 32 46C32.5523 46 33 46.4477 33 47Z" fill="#0076DC"/>
<path d="M33 25C33 24.4477 32.5523 24 32 24C31.4477 24 31 24.4477 31 25V42C31 42.5523 31.4477 43 32 43C32.5523 43 33 42.5523 33 42V25Z" fill="#0076DC"/>
<path fill-rule="evenodd" clip-rule="evenodd" d="M27.1469 5.06343C28.7929 3.83731 30.462 3 32 3C33.538 3 35.2071 3.83731 36.8531 5.06343C38.5323 6.31423 40.3362 8.08319 42.1697 10.1896C45.8399 14.4063 49.7186 20.0804 53.0565 25.9684C56.3928 31.8536 59.2175 38.0028 60.7529 43.1771C61.5194 45.7605 61.9792 48.1486 61.9993 50.1631C62.0192 52.1517 61.6111 53.9585 60.4334 55.1612C59.3818 56.2351 57.7946 57.106 55.9117 57.8197C54.0119 58.5398 51.728 59.1302 49.2056 59.5986C44.1594 60.5356 38.0702 61 32 61C25.9298 61 19.8406 60.5356 14.7944 59.5986C12.272 59.1302 9.9881 58.5398 8.08831 57.8197C6.20539 57.106 4.61817 56.2351 3.56663 55.1612C2.38892 53.9585 1.98082 52.1517 2.00069 50.1631C2.02082 48.1486 2.48055 45.7605 3.24712 43.1771C4.78247 38.0028 7.60715 31.8536 10.9435 25.9684C14.2814 20.0804 18.1601 14.4063 21.8303 10.1896C23.6638 8.08319 25.4677 6.31423 27.1469 5.06343ZM4.00059 50.1831C3.9828 51.9637 4.36558 53.1185 4.99563 53.7619C5.75184 54.5342 7.02689 55.2786 8.79714 55.9495C10.5505 56.6141 12.7107 57.1775 15.1596 57.6322C20.056 58.5414 26.0185 59 32 59C37.9815 59 43.9439 58.5414 48.8404 57.6322C51.2893 57.1775 53.4495 56.6141 55.2029 55.9495C56.9731 55.2786 58.2481 54.5342 59.0044 53.7619C59.6344 53.1185 60.0172 51.9637 59.9994 50.1831C59.9819 48.4284 59.5754 46.2395 58.8355 43.746C57.3579 38.7664 54.6087 32.7618 51.3166 26.9547C48.0261 21.1504 44.2219 15.5937 40.6611 11.5027C38.879 9.45528 37.1805 7.80115 35.6584 6.66734C34.1031 5.50885 32.8723 5 32 5C31.1277 5 29.8968 5.50885 28.3416 6.66734C26.8195 7.80115 25.121 9.45528 23.3389 11.5027C19.7781 15.5937 15.9739 21.1504 12.6834 26.9547C9.39128 32.7618 6.64206 38.7664 5.16449 43.746C4.4246 46.2395 4.01812 48.4284 4.00059 50.1831Z" fill="#0076DC"/>
<defs>
<filter id="filter0_ii_3678_399" x="2" y="3" width="60" height="58" filterUnits="userSpaceOnUse" color-interpolation-filters="sRGB">
<feFlood flood-opacity="0" result="BackgroundImageFix"/>
<feBlend mode="normal" in="SourceGraphic" in2="BackgroundImageFix" result="shape"/>
<feColorMatrix in="SourceAlpha" type="matrix" values="0 0 0 0 0 0 0 0 0 0 0 0 0 0 0 0 0 0 127 0" result="hardAlpha"/>
<feOffset dx="-4" dy="-4"/>
<feComposite in2="hardAlpha" operator="arithmetic" k2="-1" k3="1"/>
<feColorMatrix type="matrix" values="0 0 0 0 0 0 0 0 0 0.156863 0 0 0 0 0.219608 0 0 0 0.15 0"/>
<feBlend mode="hard-light" in2="shape" result="effect1_innerShadow_3678_399"/>
<feColorMatrix in="SourceAlpha" type="matrix" values="0 0 0 0 0 0 0 0 0 0 0 0 0 0 0 0 0 0 127 0" result="hardAlpha"/>
<feOffset dx="4" dy="4"/>
<feComposite in2="hardAlpha" operator="arithmetic" k2="-1" k3="1"/>
<feColorMatrix type="matrix" values="0 0 0 0 1 0 0 0 0 1 0 0 0 0 1 0 0 0 0.9 0"/>
<feBlend mode="soft-light" in2="effect1_innerShadow_3678_399" result="effect2_innerShadow_3678_399"/>
</filter>
</defs>
</svg>
