<svg width="24" height="24" viewBox="0 0 24 24" fill="none" xmlns="http://www.w3.org/2000/svg">
<path d="M1.90625 0.758545L0.40625 2.25854V7.75854H7.40625V0.758545H1.90625Z" fill="#0ECAD4"/>
<path d="M15.4062 0.758545H8.40625V6.25854L9.90625 7.75854H13.9062L15.4062 6.25854V0.758545Z" fill="#0ECAD4"/>
<path d="M17.9062 8.75854L16.4062 10.2585V14.2585L17.9062 15.7585H23.4062V8.75854H17.9062Z" fill="#0ECAD4"/>
<path d="M15.4062 23.7585H8.40625V18.2585L9.90625 16.7585H13.9062L15.4062 18.2585V23.7585Z" fill="#0ECAD4"/>
<path d="M23.4062 23.7585V18.2585L21.9062 16.7585H16.4062V23.7585H23.4062Z" fill="#0ECAD4"/>
<path d="M16.4062 6.25854V0.758545H23.4062V7.75854H17.9062L16.4062 6.25854Z" fill="#0ECAD4"/>
<path d="M7.40625 8.75854H0.40625V15.7585H5.90625L7.40625 14.2585V8.75854Z" fill="#0ECAD4"/>
<path d="M7.40625 18.2585L5.90625 16.7585H0.40625V23.7585H5.90625L7.40625 22.2585V18.2585Z" fill="#0ECAD4"/>
<path d="M11.9062 13.7585C11.0584 13.7585 10.4062 13.0411 10.4062 12.2585C10.4062 11.4107 11.1236 10.7585 11.9062 10.7585C12.7541 10.7585 13.4062 11.4759 13.4062 12.2585C13.4062 13.1064 12.7541 13.7585 11.9062 13.7585Z" fill="#0ECAD4"/>
</svg>
